<svg width="378" height="90" viewBox="0 0 378 90" fill="none" xmlns="http://www.w3.org/2000/svg">
<path fill-rule="evenodd" clip-rule="evenodd" d="M0 14.0099C0 11.801 1.76782 10.0104 3.94853 10.0104H27.6397C32.8758 10.0104 37.8974 12.1172 41.5999 15.8675C45.3023 19.6177 47.3824 24.7041 47.3824 30.0078V86.0005C47.3824 88.2093 45.6145 90 43.4338 90C41.2531 90 39.4853 88.2093 39.4853 86.0005C39.4853 83.879 38.6533 81.8445 37.1723 80.3444C35.6913 78.8443 33.6827 78.0015 31.5882 78.0015H3.94853C1.76782 78.0015 0 76.2109 0 74.002V14.0099ZM39.4853 72.1458V30.0078C39.4853 26.8256 38.2373 23.7737 36.0158 21.5236C33.7943 19.2735 30.7814 18.0093 27.6397 18.0093H7.89706V70.0026H31.5882C34.3847 70.0026 37.1047 70.7538 39.4853 72.1458Z" fill="currentColor"/>
<path fill-rule="evenodd" clip-rule="evenodd" d="M45.2678 15.8675C48.9703 12.1172 53.9919 10.0104 59.228 10.0104H82.9192C85.0999 10.0104 86.8677 11.801 86.8677 14.0099V74.002C86.8677 76.2109 85.0999 78.0015 82.9192 78.0015H55.2795C53.185 78.0015 51.1764 78.8443 49.6954 80.3444C48.2144 81.8445 47.3824 83.879 47.3824 86.0005C47.3824 88.2093 45.6146 90 43.4339 90C41.2532 90 39.4854 88.2093 39.4854 86.0005V30.0078C39.4854 24.7041 41.5654 19.6177 45.2678 15.8675ZM47.3824 72.1458C49.763 70.7538 52.483 70.0026 55.2795 70.0026H78.9707V18.0093H59.228C56.0864 18.0093 53.0734 19.2735 50.8519 21.5236C48.6304 23.7737 47.3824 26.8256 47.3824 30.0078V72.1458Z" fill="currentColor"/>
<path d="M124.255 38.0066H144.895V31.6438H132.051V26.6444H143.885V20.2816H132.051V15.2823H144.951V8.91947H124.255V38.0066Z" fill="currentColor"/>
<path d="M161.913 8.91947H153.163L161.688 23.463L152.883 38.0066H161.744L166.624 29.3714H166.848L171.728 38.0066H180.646L171.728 23.463L180.309 8.91947H171.616L166.848 17.3843H166.624L161.913 8.91947Z" fill="currentColor"/>
<path d="M188.409 38.0066H196.205V29.3714H200.524C207.072 29.3714 211.461 25.4656 211.461 19.2022C211.461 13.0099 207.184 8.91947 200.804 8.91947H188.409V38.0066ZM196.205 23.2358V15.2255H198.954C201.688 15.2255 203.328 16.7025 203.328 19.2022C203.328 21.6877 201.688 23.2358 198.954 23.2358H196.205Z" fill="currentColor"/>
<path d="M222.933 38.0066L224.588 32.4391H234.067L235.721 38.0066H244.134L234.655 8.91947H223.999L214.52 38.0066H222.933ZM226.355 26.5308L229.215 16.9298H229.439L232.3 26.5308H226.355Z" fill="currentColor"/>
<path d="M276.485 8.91947H268.689V24.1448H268.464L258.256 8.91947H251.638V38.0066H259.434V22.7245H259.603L269.979 38.0066H276.485V8.91947Z" fill="currentColor"/>
<path d="M300.391 18.0092H307.85C307.822 12.2997 303.476 8.5218 296.521 8.5218C289.692 8.5218 284.869 12.2429 284.911 17.782C284.897 22.3268 288.01 24.8549 293.099 25.9627L295.96 26.5876C299.157 27.2978 300.251 28.1073 300.279 29.4282C300.251 30.8626 298.961 31.871 296.465 31.871C293.478 31.871 291.711 30.4508 291.585 27.7807H284.182C284.21 35.0808 289.089 38.3475 296.577 38.3475C303.854 38.3475 308.215 35.1661 308.243 29.4282C308.215 24.9969 305.607 21.8865 299.269 20.5089L296.913 19.9976C294.193 19.4153 292.973 18.6057 293.043 17.2138C293.057 15.9356 294.109 14.9982 296.521 14.9982C299.045 14.9982 300.237 16.1202 300.391 18.0092Z" fill="currentColor"/>
<path d="M322.288 38.0066L323.943 32.4391H333.421L335.076 38.0066H343.489L334.01 8.91947H323.354L313.875 38.0066H322.288ZM324.868 6.07893C324.868 4.65866 325.429 3.92012 326.326 3.92012C326.915 3.92012 327.406 4.3178 327.981 4.78649C328.808 5.45401 329.818 6.26357 331.542 6.24936C334.165 6.22096 336.254 4.13316 336.31 0.113801H332.552C332.524 1.49146 332.117 2.31522 331.038 2.32942C330.505 2.32942 330.014 1.94595 329.439 1.49146C328.598 0.823936 327.546 -0.014025 325.822 0.00017814C323.171 0.0143813 321.054 1.98856 321.054 6.07893H324.868ZM325.709 26.5308L328.57 16.9298H328.794L331.655 26.5308H325.709Z" fill="currentColor"/>
<path d="M377.463 23.463C377.463 13.7484 371.293 8.5218 363.497 8.5218C355.645 8.5218 349.531 13.7484 349.531 23.463C349.531 33.1209 355.645 38.4043 363.497 38.4043C371.293 38.4043 377.463 33.1777 377.463 23.463ZM369.442 23.463C369.442 28.6896 367.367 31.5302 363.497 31.5302C359.627 31.5302 357.552 28.6896 357.552 23.463C357.552 18.2364 359.627 15.3959 363.497 15.3959C367.367 15.3959 369.442 18.2364 369.442 23.463Z" fill="currentColor"/>
<path d="M124.255 78.0017H143.661V71.6389H132.051V48.9146H124.255V78.0017Z" fill="currentColor"/>
<path d="M163.69 48.9146H155.894V78.0017H163.69V48.9146Z" fill="currentColor"/>
<path d="M184.319 48.9146H175.513L184.992 78.0017H195.648L205.127 48.9146H196.321L190.432 69.4232H190.208L184.319 48.9146Z" fill="currentColor"/>
<path d="M216.974 78.0017H224.771V68.4006H227.463L232.511 78.0017H240.98L235.147 67.1508C238.203 65.6595 240.026 62.8332 240.026 58.7996C240.026 52.6073 235.75 48.9146 229.37 48.9146H216.974V78.0017ZM224.771 62.2651V55.2205H227.519C230.253 55.2205 231.894 56.3 231.894 58.7996C231.894 61.2851 230.253 62.2651 227.519 62.2651H224.771Z" fill="currentColor"/>
<path d="M259.891 78.0017L261.545 72.4342H271.024L272.678 78.0017H281.091L271.613 48.9146H260.956L251.477 78.0017H259.891ZM263.312 66.5259L266.172 56.9249H266.397L269.257 66.5259H263.312Z" fill="currentColor"/>
<path d="M292.939 78.0017H300.735V68.4006H303.427L308.475 78.0017H316.944L311.111 67.1508C314.168 65.6595 315.991 62.8332 315.991 58.7996C315.991 52.6073 311.714 48.9146 305.334 48.9146H292.939V78.0017ZM300.735 62.2651V55.2205H303.483C306.218 55.2205 307.858 56.3 307.858 58.7996C307.858 61.2851 306.218 62.2651 303.483 62.2651H300.735Z" fill="currentColor"/>
<path d="M336.192 48.9146H328.395V78.0017H336.192V48.9146Z" fill="currentColor"/>
<path d="M356.427 78.0017L358.082 72.4342H367.561L369.215 78.0017H377.628L368.15 48.9146H357.493L348.014 78.0017H356.427ZM359.849 66.5259L362.709 56.9249H362.934L365.794 66.5259H359.849Z" fill="currentColor"/>
</svg>
