<svg width="379" height="90" viewBox="0 0 379 90" fill="none" xmlns="http://www.w3.org/2000/svg">
<path fill-rule="evenodd" clip-rule="evenodd" d="M0.401367 14.0099C0.401367 11.801 2.16918 10.0104 4.3499 10.0104H28.0411C33.2772 10.0104 38.2988 12.1172 42.0012 15.8675C45.7037 19.6177 47.7837 24.7041 47.7837 30.0078V86.0005C47.7837 88.2093 46.0159 90 43.8352 90C41.6545 90 39.8867 88.2093 39.8867 86.0005C39.8867 83.879 39.0547 81.8445 37.5737 80.3444C36.0927 78.8443 34.084 78.0015 31.9896 78.0015H4.3499C2.16918 78.0015 0.401367 76.2109 0.401367 74.002V14.0099ZM39.8867 72.1458V30.0078C39.8867 26.8256 38.6387 23.7737 36.4172 21.5236C34.1957 19.2735 31.1827 18.0093 28.0411 18.0093H8.29843V70.0026H31.9896C34.7861 70.0026 37.5061 70.7538 39.8867 72.1458Z" fill="white"/>
<path fill-rule="evenodd" clip-rule="evenodd" d="M45.6692 15.8675C49.3717 12.1172 54.3933 10.0104 59.6294 10.0104H83.3206C85.5013 10.0104 87.2691 11.801 87.2691 14.0099V74.002C87.2691 76.2109 85.5013 78.0015 83.3206 78.0015H55.6808C53.5864 78.0015 51.5778 78.8443 50.0968 80.3444C48.6158 81.8445 47.7838 83.879 47.7838 86.0005C47.7838 88.2093 46.016 90 43.8352 90C41.6545 90 39.8867 88.2093 39.8867 86.0005V30.0078C39.8867 24.7041 41.9667 19.6177 45.6692 15.8675ZM47.7838 72.1458C50.1644 70.7538 52.8844 70.0026 55.6808 70.0026H79.372V18.0093H59.6294C56.4877 18.0093 53.4748 19.2735 51.2533 21.5236C49.0318 23.7737 47.7838 26.8256 47.7838 30.0078V72.1458Z" fill="white"/>
<path d="M124.656 38.0066H145.296V31.6438H132.452V26.6444H144.287V20.2816H132.452V15.2823H145.352V8.91947H124.656V38.0066Z" fill="white"/>
<path d="M162.314 8.91947H153.565L162.09 23.463L153.284 38.0066H162.146L167.025 29.3714H167.25L172.129 38.0066H181.047L172.129 23.463L180.711 8.91947H172.017L167.25 17.3843H167.025L162.314 8.91947Z" fill="white"/>
<path d="M188.811 38.0066H196.607V29.3714H200.925C207.474 29.3714 211.862 25.4656 211.862 19.2022C211.862 13.0099 207.586 8.91947 201.206 8.91947H188.811V38.0066ZM196.607 23.2358V15.2255H199.355C202.089 15.2255 203.73 16.7025 203.73 19.2022C203.73 21.6877 202.089 23.2358 199.355 23.2358H196.607Z" fill="white"/>
<path d="M223.335 38.0066L224.989 32.4391H234.468L236.122 38.0066H244.536L235.057 8.91947H224.4L214.922 38.0066H223.335ZM226.756 26.5308L229.616 16.9298H229.841L232.701 26.5308H226.756Z" fill="white"/>
<path d="M276.886 8.91947H269.09V24.1448H268.866L258.658 8.91947H252.04V38.0066H259.836V22.7245H260.004L270.38 38.0066H276.886V8.91947Z" fill="white"/>
<path d="M300.792 18.0092H308.252C308.224 12.2997 303.877 8.5218 296.922 8.5218C290.094 8.5218 285.27 12.2429 285.312 17.782C285.298 22.3268 288.411 24.8549 293.501 25.9627L296.361 26.5876C299.558 27.2978 300.652 28.1073 300.68 29.4282C300.652 30.8626 299.362 31.871 296.866 31.871C293.879 31.871 292.113 30.4508 291.986 27.7807H284.583C284.611 35.0808 289.491 38.3475 296.978 38.3475C304.255 38.3475 308.616 35.1661 308.644 29.4282C308.616 24.9969 306.008 21.8865 299.67 20.5089L297.315 19.9976C294.594 19.4153 293.375 18.6057 293.445 17.2138C293.459 15.9356 294.51 14.9982 296.922 14.9982C299.446 14.9982 300.638 16.1202 300.792 18.0092Z" fill="white"/>
<path d="M322.689 38.0066L324.344 32.4391H333.823L335.477 38.0066H343.89L334.412 8.91947H323.755L314.276 38.0066H322.689ZM325.269 6.07893C325.269 4.65866 325.83 3.92012 326.728 3.92012C327.317 3.92012 327.807 4.3178 328.382 4.78649C329.21 5.45401 330.219 6.26357 331.944 6.24936C334.566 6.22096 336.655 4.13316 336.711 0.113801H332.953C332.925 1.49146 332.519 2.31522 331.439 2.32942C330.906 2.32942 330.415 1.94595 329.841 1.49146C328.999 0.823936 327.948 -0.014025 326.223 0.00017814C323.573 0.0143813 321.456 1.98856 321.456 6.07893H325.269ZM326.111 26.5308L328.971 16.9298H329.196L332.056 26.5308H326.111Z" fill="white"/>
<path d="M377.864 23.463C377.864 13.7484 371.694 8.5218 363.898 8.5218C356.046 8.5218 349.933 13.7484 349.933 23.463C349.933 33.1209 356.046 38.4043 363.898 38.4043C371.694 38.4043 377.864 33.1777 377.864 23.463ZM369.844 23.463C369.844 28.6896 367.768 31.5302 363.898 31.5302C360.028 31.5302 357.953 28.6896 357.953 23.463C357.953 18.2364 360.028 15.3959 363.898 15.3959C367.768 15.3959 369.844 18.2364 369.844 23.463Z" fill="white"/>
<path d="M124.656 78.0017H144.062V71.6389H132.452V48.9146H124.656V78.0017Z" fill="white"/>
<path d="M164.091 48.9146H156.295V78.0017H164.091V48.9146Z" fill="white"/>
<path d="M184.72 48.9146H175.914L185.393 78.0017H196.05L205.528 48.9146H196.723L190.834 69.4232H190.609L184.72 48.9146Z" fill="white"/>
<path d="M217.376 78.0017H225.172V68.4006H227.864L232.912 78.0017H241.381L235.548 67.1508C238.605 65.6595 240.428 62.8332 240.428 58.7996C240.428 52.6073 236.151 48.9146 229.771 48.9146H217.376V78.0017ZM225.172 62.2651V55.2205H227.92C230.654 55.2205 232.295 56.3 232.295 58.7996C232.295 61.2851 230.654 62.2651 227.92 62.2651H225.172Z" fill="white"/>
<path d="M260.292 78.0017L261.946 72.4342H271.425L273.08 78.0017H281.493L272.014 48.9146H261.358L251.879 78.0017H260.292ZM263.713 66.5259L266.574 56.9249H266.798L269.658 66.5259H263.713Z" fill="white"/>
<path d="M293.34 78.0017H301.136V68.4006H303.829L308.876 78.0017H317.346L311.512 67.1508C314.569 65.6595 316.392 62.8332 316.392 58.7996C316.392 52.6073 312.115 48.9146 305.736 48.9146H293.34V78.0017ZM301.136 62.2651V55.2205H303.885C306.619 55.2205 308.259 56.3 308.259 58.7996C308.259 61.2851 306.619 62.2651 303.885 62.2651H301.136Z" fill="white"/>
<path d="M336.593 48.9146H328.797V78.0017H336.593V48.9146Z" fill="white"/>
<path d="M356.829 78.0017L358.483 72.4342H367.962L369.617 78.0017H378.03L368.551 48.9146H357.895L348.416 78.0017H356.829ZM360.25 66.5259L363.111 56.9249H363.335L366.195 66.5259H360.25Z" fill="white"/>
</svg>
