<svg width="140" height="48" viewBox="0 0 140 48" fill="none" xmlns="http://www.w3.org/2000/svg">
<rect width="140" height="48" rx="5" fill="#F37027"/>
<path fill-rule="evenodd" clip-rule="evenodd" d="M13.561 14.6377C13.561 13.9911 14.0852 13.4669 14.7318 13.4669H21.7562C23.3086 13.4669 24.7975 14.0836 25.8953 15.1814C26.9931 16.2792 27.6098 17.7681 27.6098 19.3206V35.7108C27.6098 36.3574 27.0857 36.8816 26.4391 36.8816C25.7925 36.8816 25.2684 36.3574 25.2684 35.7108C25.2684 35.0898 25.0217 34.4943 24.5826 34.0552C24.1434 33.616 23.5479 33.3694 22.9269 33.3694H14.7318C14.0852 33.3694 13.561 32.8452 13.561 32.1986V14.6377ZM25.2684 31.6553V19.3206C25.2684 18.3891 24.8983 17.4957 24.2397 16.8371C23.581 16.1784 22.6876 15.8084 21.7562 15.8084H15.9025V31.0279H22.9269C23.756 31.0279 24.5625 31.2478 25.2684 31.6553Z" fill="white"/>
<path fill-rule="evenodd" clip-rule="evenodd" d="M26.9831 15.1814C28.0808 14.0836 29.5697 13.4669 31.1222 13.4669H38.1466C38.7932 13.4669 39.3173 13.9911 39.3173 14.6377V32.1986C39.3173 32.8452 38.7932 33.3694 38.1466 33.3694H29.9515C29.3305 33.3694 28.7349 33.616 28.2958 34.0552C27.8567 34.4943 27.61 35.0898 27.61 35.7108C27.61 36.3574 27.0859 36.8816 26.4393 36.8816C25.7927 36.8816 25.2686 36.3574 25.2686 35.7108V19.3206C25.2686 17.7681 25.8853 16.2792 26.9831 15.1814ZM27.61 31.6553C28.3159 31.2478 29.1223 31.0279 29.9515 31.0279H36.9759V15.8084H31.1222C30.1907 15.8084 29.2974 16.1784 28.6387 16.8371C27.9801 17.4957 27.61 18.3891 27.61 19.3206V31.6553Z" fill="white"/>
<path d="M50.4023 21.662H56.5221V19.7994H52.7139V18.336H56.2227V16.4735H52.7139V15.0101H56.5387V13.1475H50.4023V21.662Z" fill="white"/>
<path d="M61.5678 13.1475H58.9736L61.5013 17.4047L58.8904 21.662H61.5179L62.9647 19.1342H63.0312L64.478 21.662H67.1221L64.478 17.4047L67.0224 13.1475H64.4448L63.0312 15.6254H62.9647L61.5678 13.1475Z" fill="white"/>
<path d="M69.424 21.662H71.7355V19.1342H73.016C74.9575 19.1342 76.2588 17.9909 76.2588 16.1575C76.2588 14.3449 74.9908 13.1475 73.0992 13.1475H69.424V21.662ZM71.7355 17.3382V14.9934H72.5504C73.3611 14.9934 73.8475 15.4258 73.8475 16.1575C73.8475 16.8851 73.3611 17.3382 72.5504 17.3382H71.7355Z" fill="white"/>
<path d="M79.6603 21.662L80.1509 20.0322H82.9613L83.4519 21.662H85.9463L83.1359 13.1475H79.9763L77.1658 21.662H79.6603ZM80.6747 18.3027L81.5228 15.4923H81.5893L82.4374 18.3027H80.6747Z" fill="white"/>
<path d="M95.5382 13.1475H93.2267V17.6043H93.1602L90.1336 13.1475H88.1712V21.662H90.4828V17.1886H90.5327L93.6092 21.662H95.5382V13.1475Z" fill="white"/>
<path d="M102.626 15.8083H104.838C104.83 14.137 103.541 13.0311 101.479 13.0311C99.4542 13.0311 98.024 14.1204 98.0365 15.7418C98.0323 17.0722 98.9553 17.8122 100.464 18.1365L101.313 18.3194C102.26 18.5273 102.585 18.7642 102.593 19.1509C102.585 19.5708 102.202 19.8659 101.462 19.8659C100.577 19.8659 100.053 19.4502 100.015 18.6686H97.8203C97.8286 20.8055 99.2754 21.7617 101.495 21.7617C103.653 21.7617 104.946 20.8305 104.954 19.1509C104.946 17.8537 104.173 16.9433 102.294 16.54L101.595 16.3903C100.789 16.2199 100.427 15.9829 100.448 15.5755C100.452 15.2013 100.764 14.9269 101.479 14.9269C102.227 14.9269 102.581 15.2554 102.626 15.8083Z" fill="white"/>
<path d="M109.119 21.662L109.609 20.0322H112.42L112.91 21.662H115.405L112.594 13.1475H109.435L106.624 21.662H109.119ZM109.884 12.3161C109.884 11.9003 110.05 11.6841 110.316 11.6841C110.491 11.6841 110.636 11.8005 110.807 11.9377C111.052 12.1331 111.351 12.3701 111.863 12.3659C112.64 12.3576 113.26 11.7465 113.276 10.5699H112.162C112.154 10.9732 112.033 11.2143 111.713 11.2185C111.555 11.2185 111.41 11.1062 111.239 10.9732C110.99 10.7778 110.678 10.5325 110.166 10.5367C109.381 10.5408 108.753 11.1187 108.753 12.3161H109.884ZM110.133 18.3027L110.981 15.4923H111.048L111.896 18.3027H110.133Z" fill="white"/>
<path d="M125.478 17.4047C125.478 14.5611 123.649 13.0311 121.337 13.0311C119.009 13.0311 117.196 14.5611 117.196 17.4047C117.196 20.2318 119.009 21.7784 121.337 21.7784C123.649 21.7784 125.478 20.2484 125.478 17.4047ZM123.1 17.4047C123.1 18.9347 122.485 19.7662 121.337 19.7662C120.19 19.7662 119.574 18.9347 119.574 17.4047C119.574 15.8748 120.19 15.0433 121.337 15.0433C122.485 15.0433 123.1 15.8748 123.1 17.4047Z" fill="white"/>
<path d="M50.4023 33.3694H56.1562V31.5069H52.7139V24.855H50.4023V33.3694Z" fill="white"/>
<path d="M62.0948 24.855H59.7833V33.3694H62.0948V24.855Z" fill="white"/>
<path d="M68.2111 24.855H65.6003L68.4107 33.3694H71.5703L74.3808 24.855H71.7699L70.0238 30.8583H69.9573L68.2111 24.855Z" fill="white"/>
<path d="M77.8935 33.3694H80.205V30.559H81.0033L82.4999 33.3694H85.011L83.2815 30.1931C84.1879 29.7566 84.7283 28.9293 84.7283 27.7486C84.7283 25.9359 83.4603 24.855 81.5687 24.855H77.8935V33.3694ZM80.205 28.763V26.7009H81.0199C81.8306 26.7009 82.317 27.0168 82.317 27.7486C82.317 28.4761 81.8306 28.763 81.0199 28.763H80.205Z" fill="white"/>
<path d="M90.6181 33.3694L91.1086 31.7397H93.9191L94.4096 33.3694H96.9041L94.0937 24.855H90.934L88.1236 33.3694H90.6181ZM91.6325 30.0102L92.4806 27.1998H92.5471L93.3952 30.0102H91.6325Z" fill="white"/>
<path d="M100.417 33.3694H102.728V30.559H103.527L105.023 33.3694H107.534L105.805 30.1931C106.711 29.7566 107.252 28.9293 107.252 27.7486C107.252 25.9359 105.984 24.855 104.092 24.855H100.417V33.3694ZM102.728 28.763V26.7009H103.543C104.354 26.7009 104.84 27.0168 104.84 27.7486C104.84 28.4761 104.354 28.763 103.543 28.763H102.728Z" fill="white"/>
<path d="M113.241 24.855H110.93V33.3694H113.241V24.855Z" fill="white"/>
<path d="M119.241 33.3694L119.732 31.7397H122.542L123.033 33.3694H125.527L122.717 24.855H119.557L116.747 33.3694H119.241ZM120.255 30.0102L121.104 27.1998H121.17L122.018 30.0102H120.255Z" fill="white"/>
</svg>
