<svg width="48" height="53" viewBox="0 0 48 53" fill="none" xmlns="http://www.w3.org/2000/svg">
<path fill-rule="evenodd" clip-rule="evenodd" d="M4.17604 35.3022C6.61417 32.7703 9.921 31.3479 13.3691 31.3479H34.1705C37.6185 31.3479 40.9254 32.7703 43.3635 35.3022C45.8016 37.8341 47.1714 41.2682 47.1714 44.8488V50.2492C47.1714 51.7405 46.0072 52.9494 44.5712 52.9494C43.1352 52.9494 41.971 51.7405 41.971 50.2492V44.8488C41.971 42.7004 41.1492 40.64 39.6863 39.1209C38.2234 37.6017 36.2393 36.7483 34.1705 36.7483H13.3691C11.3002 36.7483 9.31613 37.6017 7.85324 39.1209C6.39036 40.64 5.56852 42.7004 5.56852 44.8488V50.2492C5.56852 51.7405 4.40438 52.9494 2.96834 52.9494C1.5323 52.9494 0.368164 51.7405 0.368164 50.2492V44.8488C0.368164 41.2682 1.7379 37.8341 4.17604 35.3022Z" fill="white"/>
<path fill-rule="evenodd" clip-rule="evenodd" d="M23.7703 5.78619C19.5947 5.78619 16.2098 9.17115 16.2098 13.3467C16.2098 17.5223 19.5947 20.9072 23.7703 20.9072C27.9459 20.9072 31.3308 17.5223 31.3308 13.3467C31.3308 9.17115 27.9459 5.78619 23.7703 5.78619ZM11.1694 13.3467C11.1694 6.38745 16.811 0.74585 23.7703 0.74585C30.7296 0.74585 36.3712 6.38745 36.3712 13.3467C36.3712 20.306 30.7296 25.9476 23.7703 25.9476C16.811 25.9476 11.1694 20.306 11.1694 13.3467Z" fill="white"/>
</svg>
